<svg id="a48f523b-b590-4d07-8449-b779acd6f973" data-name="Layer 2" xmlns="http://www.w3.org/2000/svg" viewBox="0 0 100 100"><title>my-github</title><path d="M81,4,50,0,19,4,0,46,11,84l25,16,3-2-.78-14-8.88,1.32L15.18,77.88,19,70.73l11.65,6.14,8.7-1.23L41,70,24,63,20,45l5-12V21l13,5,12-2,12,2,13-5V33l5,12L76,63,59,70l3,10L61,98l3,2L89,84l11-38ZM28.81,88.46l6.6-1,.5,8.91L13.57,82.08l-.57-2Zm57.62-6.38L64.09,96.38,65,79.64l-2.37-7.9,15.94-6.56,4.54-20.46L78,32.4V16.63L61.69,22.91,50,21,38.31,22.91,22,16.63V32.4L16.87,44.72l4.54,20.46,15.94,6.56L37,72.94l-5.84.82L17.7,66.67,12.15,77.2l-9-31L21,6.76,50,3,79,6.76,96.81,46.23Z"/></svg>